<?xml version="1.0" standalone="no"?>
<!DOCTYPE svg PUBLIC "-//W3C//DTD SVG 1.1//EN" "http://www.w3.org/Graphics/SVG/1.1/DTD/svg11.dtd">
<svg version="1.1" xmlns="http://www.w3.org/2000/svg" viewBox="0 0 50.53715842452857 57.63300668257261" width="101.07431684905714" height="115.26601336514523"><!-- svg-source:excalidraw --><metadata></metadata><defs><style class="style-fonts">
      </style></defs><g stroke-linecap="round"><g transform="translate(10 47.63300668257261) rotate(0 7.3283543999756375 -12.032972406543422)"><path d="M0 0 C4.41 -8.12, 11.32 -17.65, 14.66 -24.07 M0 0 C5.98 -9.43, 11.2 -19.17, 14.66 -24.07" stroke="#18204e" stroke-width="4" fill="none"></path></g></g><mask></mask><g stroke-linecap="round"><g transform="translate(25.305720936710486 23.567061869485883) rotate(0 7.615718743909042 11.892757429549988)"><path d="M0 0 C4.38 6.8, 7.56 11.95, 15.23 23.79 M0 0 C3.3 4.7, 6.39 9.31, 15.23 23.79" stroke="#18204e" stroke-width="4" fill="none"></path></g></g><mask></mask><g stroke-linecap="round"><g transform="translate(24.988426114294953 22.784649217793685) rotate(0 -0.07932370560388335 -6.015222513017989)"><path d="M0 0 C0.14 -2.95, 0.38 -7.31, -0.16 -12.03 M0 0 C0.02 -4.06, -0.35 -8.09, -0.16 -12.03" stroke="#18204e" stroke-width="4" fill="none"></path></g></g><mask></mask><g stroke-linecap="round"><g transform="translate(25.464368347918253 10.137258292986644) rotate(0 6.3458964483116915 0)"><path d="M0 0 C4.53 0.46, 8.35 -0.47, 12.69 0 M0 0 C4.78 0.34, 9.75 0.09, 12.69 0" stroke="#18204e" stroke-width="4" fill="none"></path></g></g><mask></mask><g stroke-linecap="round"><g transform="translate(25.94031058154178 17.84908202762506) rotate(0 6.663191270727225 0)"><path d="M0 0 C4.35 0.2, 8.29 0.49, 13.33 0 M0 0 C4.26 0.27, 9.01 -0.12, 13.33 0" stroke="#18204e" stroke-width="4" fill="none"></path></g></g><mask></mask><g stroke-linecap="round"><g transform="translate(39.26669312299623 17.232136128853995) rotate(0 -2.221063756909075 -1.8508376963132491)"><path d="M0 0 C-1.1 -1.04, -2.24 -1.75, -4.44 -3.7 M0 0 C-1.54 -1.21, -3.01 -2.5, -4.44 -3.7" stroke="#18204e" stroke-width="4" fill="none"></path></g></g><mask></mask><g stroke-linecap="round"><g transform="translate(39.10804571178846 10.137258292986644) rotate(0 -2.0624163457013083 1.542364746927717)"><path d="M0 0 C-1.25 0.84, -2.23 1.87, -4.12 3.08 M0 0 C-0.91 0.68, -1.6 1.21, -4.12 3.08" stroke="#18204e" stroke-width="4" fill="none"></path></g></g><mask></mask><g stroke-linecap="round"><g transform="translate(17.812972014293564 34.79989266020971) rotate(0 7.009179717929101 1.186193090229665)"><path d="M0 0 C0.37 0.69, 0.67 1.56, 1.14 2.52 M0 0 C0.29 0.55, 0.45 1.16, 1.14 2.52 M1.14 2.52 C1.73 1.97, 2.73 0.77, 4.15 -0.81 M1.14 2.52 C2.34 1.14, 3.56 -0.03, 4.15 -0.81 M4.15 -0.81 C4.69 0.21, 5.37 0.98, 6.44 3.08 M4.15 -0.81 C4.71 0.03, 4.99 0.72, 6.44 3.08 M6.44 3.08 C7.38 1.82, 8.1 0.49, 9.5 -0.86 M6.44 3.08 C7.17 2.04, 8.17 0.77, 9.5 -0.86 M9.5 -0.86 C10.72 0.55, 12.33 1.71, 14.02 3.23 M9.5 -0.86 C10.76 0.32, 12.01 1.36, 14.02 3.23" stroke="#18204e" stroke-width="4" fill="none"></path></g></g><mask></mask><g stroke-linecap="round"><g transform="translate(32.1428505487263 37.82847076292376) rotate(0 0.804757671317816 -0.757144525678541)"><path d="M0 0 C0.48 -0.55, 1.03 -1.01, 1.61 -1.51 M0 0 C0.56 -0.56, 1.15 -1.12, 1.61 -1.51" stroke="#18204e" stroke-width="4" fill="none"></path></g></g><mask></mask></svg>